<?xml version="1.0" encoding="UTF-8"?>
<svg version="1.1" xmlns="http://www.w3.org/2000/svg" width="188" height="85">
<path d="M0 0 C62.04 0 124.08 0 188 0 C188 28.05 188 56.1 188 85 C125.96 85 63.92 85 0 85 C0 56.95 0 28.9 0 0 Z " fill="#FDFDFE" transform="translate(0,0)"/>
<path d="M0 0 C0 5.61 0 11.22 0 17 C5.7018576 15.59628479 5.7018576 15.59628479 8 13 C8.64767793 10.42938689 8.64767793 10.42938689 9 8 C10.65 8 12.3 8 14 8 C13.50769231 14.52307692 13.50769231 14.52307692 10.9375 16.9375 C10.298125 17.288125 9.65875 17.63875 9 18 C10.175625 18.7734375 10.175625 18.7734375 11.375 19.5625 C14.55594248 22.5162323 15.11493693 24.81606548 16 29 C14.35 29 12.7 29 11 29 C10.484375 27.865625 9.96875 26.73125 9.4375 25.5625 C8.42041851 23.60110246 8.42041851 23.60110246 7 22 C3.36852515 20.9434891 3.36852515 20.9434891 0 21 C0 23.64 0 26.28 0 29 C-1.65 29 -3.3 29 -5 29 C-5 19.76 -5 10.52 -5 1 C-3 0 -3 0 0 0 Z " fill="#2D89EA" transform="translate(48,27)"/>
<path d="M0 0 C1.65 0 3.3 0 5 0 C7.31 4.95 9.62 9.9 12 15 C13.98 10.05 15.96 5.1 18 0 C19.65 0 21.3 0 23 0 C21.82458447 5.21264663 19.68274313 10.0581818 17.6875 15 C17.29626953 15.99773438 16.90503906 16.99546875 16.50195312 18.0234375 C16.11330078 18.98507813 15.72464844 19.94671875 15.32421875 20.9375 C14.97447998 21.81277344 14.62474121 22.68804687 14.2644043 23.58984375 C12.84837345 26.2890244 11.31464175 28.02779451 9 30 C6.13909508 30.22970769 3.8516044 29.57032088 1 29 C1 27.68 1 26.36 1 25 C3.64 25 6.28 25 9 25 C8.51346496 19.10752007 6.7159476 14.86529785 3.9375 9.6875 C0 2.22307692 0 2.22307692 0 0 Z " fill="#1D7FDA" transform="translate(151,35)"/>
<path d="M0 0 C0 1.32 0 2.64 0 4 C-3.96 4 -7.92 4 -12 4 C-12.33 4.66 -12.66 5.32 -13 6 C-12.32453125 6.18175781 -11.6490625 6.36351562 -10.953125 6.55078125 C-10.06109375 6.80214844 -9.1690625 7.05351563 -8.25 7.3125 C-7.36828125 7.55613281 -6.4865625 7.79976562 -5.578125 8.05078125 C-2.90352299 9.03552108 -1.10109967 10.08244467 1 12 C1.4375 14.5 1.4375 14.5 1 17 C-0.87860833 19.5048111 -1.96101874 19.98700625 -5 21 C-9.56187786 21.25343766 -12.87151072 21.00169177 -17 19 C-16.67 17.68 -16.34 16.36 -16 15 C-15.01 15.33 -14.02 15.66 -13 16 C-11.43881572 16.06740865 -9.8749748 16.08514456 -8.3125 16.0625 C-7.50425781 16.05347656 -6.69601563 16.04445313 -5.86328125 16.03515625 C-5.24839844 16.02355469 -4.63351563 16.01195313 -4 16 C-4 15.01 -4 14.02 -4 13 C-4.77085938 12.80664062 -5.54171875 12.61328125 -6.3359375 12.4140625 C-7.33882812 12.15367188 -8.34171875 11.89328125 -9.375 11.625 C-10.37273438 11.36976562 -11.37046875 11.11453125 -12.3984375 10.8515625 C-15 10 -15 10 -17 8 C-17.4375 5.0625 -17.4375 5.0625 -17 2 C-12.41368618 -2.2996692 -5.73016897 -1.91005632 0 0 Z " fill="#4197FE" transform="translate(38,36)"/>
<path d="M0 0 C1.32 0 2.64 0 4 0 C4 1.32 4 2.64 4 4 C6.97 4 9.94 4 13 4 C13 5.65 13 7.3 13 9 C10.03 9 7.06 9 4 9 C4.33 12.63 4.66 16.26 5 20 C7.64 20.33 10.28 20.66 13 21 C13 22.32 13 23.64 13 25 C9.89951072 26.55024464 7.42105782 26.28992015 4 26 C1.2890625 24.43359375 1.2890625 24.43359375 -1 22 C-1.48828125 18.546875 -1.48828125 18.546875 -1.3125 14.75 C-1.26738281 13.48671875 -1.22226563 12.2234375 -1.17578125 10.921875 C-1.11777344 9.95765625 -1.05976563 8.9934375 -1 8 C-1.99 8 -2.98 8 -4 8 C-4 7.01 -4 6.02 -4 5 C-3.01 4.34 -2.02 3.68 -1 3 C-0.67 2.01 -0.34 1.02 0 0 Z " fill="#59A4FE" transform="translate(136,31)"/>
<path d="M0 0 C1.65 0 3.3 0 5 0 C6.98 5.28 8.96 10.56 11 16 C12.98 10.72 14.96 5.44 17 0 C18.65 0 20.3 0 22 0 C16.92307692 18.07692308 16.92307692 18.07692308 14 21 C12.00041636 21.04080783 9.99954746 21.04254356 8 21 C7.040062 18.93824636 6.08211576 16.87556531 5.125 14.8125 C4.59132813 13.66394531 4.05765625 12.51539063 3.5078125 11.33203125 C0 3.58031088 0 3.58031088 0 0 Z " fill="#2080D9" transform="translate(97,35)"/>
<path d="M0 0 C1.51040114 0.10430218 3.01880923 0.24197681 4.5234375 0.41015625 C5.668125 0.48459961 5.668125 0.48459961 6.8359375 0.56054688 C9.90372861 0.82157822 12.33123743 1.08718047 14.91015625 2.83984375 C16.42576795 5.34389786 16.08849045 7.62186194 15.8984375 10.47265625 C14.9084375 9.48265625 13.9184375 8.49265625 12.8984375 7.47265625 C11.9084375 7.96765625 11.9084375 7.96765625 10.8984375 8.47265625 C10.8984375 7.81265625 10.8984375 7.15265625 10.8984375 6.47265625 C3.4093876 7.19659774 -1.60213824 8.25819433 -7.34375 13.20703125 C-9.91100314 15.05545351 -12.052082 14.93007833 -15.1015625 14.47265625 C-14.20791735 13.26270371 -13.31150471 12.05479514 -12.4140625 10.84765625 C-11.91519531 10.17476562 -11.41632812 9.501875 -10.90234375 8.80859375 C-10.30808594 8.03773437 -9.71382812 7.266875 -9.1015625 6.47265625 C-8.02841797 4.85423828 -8.02841797 4.85423828 -6.93359375 3.203125 C-3.68223541 0.0683671 -3.68223541 0.0683671 0 0 Z " fill="#4B9CFF" transform="translate(22.1015625,20.52734375)"/>
<path d="M0 0 C0 9.57 0 19.14 0 29 C-1.65 29 -3.3 29 -5 29 C-5 19.76 -5 10.52 -5 1 C-3 0 -3 0 0 0 Z " fill="#4B9CFE" transform="translate(83,27)"/>
<path d="M0 0 C1.65 0 3.3 0 5 0 C5 9.24 5 18.48 5 28 C3.35 28 1.7 28 0 28 C0 18.76 0 9.52 0 0 Z " fill="#5BA5FB" transform="translate(88,28)"/>
<path d="M0 0 C0.66 1.65 1.32 3.3 2 5 C1.32453125 5.03738281 0.6490625 5.07476562 -0.046875 5.11328125 C-0.93890625 5.17902344 -1.8309375 5.24476562 -2.75 5.3125 C-4.07257812 5.39951172 -4.07257812 5.39951172 -5.421875 5.48828125 C-8.38626734 6.07666821 -9.78509678 6.97288205 -12 9 C-12.99 10.485 -12.99 10.485 -14 12 C-16.97927461 8.66321244 -16.97927461 8.66321244 -17.0625 6 C-13.41074367 -0.87389427 -6.77443916 -0.48197591 0 0 Z " fill="#378FEE" transform="translate(32,29)"/>
<path d="M0 0 C1.32 0 2.64 0 4 0 C4.144375 1.134375 4.28875 2.26875 4.4375 3.4375 C4.61171478 6.80777201 4.61171478 6.80777201 6 8 C7.34747084 8.23075082 8.70377565 8.41153063 10.0625 8.5625 C11.361875 8.706875 12.66125 8.85125 14 9 C14 10.32 14 11.64 14 13 C10.89951072 14.55024464 8.42105782 14.28992015 5 14 C2.0625 12.625 2.0625 12.625 0 10 C-0.41250557 6.62591602 -0.29033857 3.38083135 0 0 Z " fill="#207EC9" transform="translate(135,43)"/>
<path d="M0 0 C2.31 0 4.62 0 7 0 C4.00499584 10.61865112 4.00499584 10.61865112 0 13 C-2.81819561 13.01081841 -5.2081407 12.55837186 -8 12 C-8 10.68 -8 9.36 -8 8 C-5.36 8 -2.72 8 0 8 C0 5.36 0 2.72 0 0 Z " fill="#1879C2" transform="translate(160,52)"/>
<path d="M0 0 C1.66611905 -0.042721 3.33382885 -0.04063832 5 0 C6 1 6 1 6.25 3.375 C6 6 6 6 4.6875 7.75 C1.02074615 10.46611396 -2.60708387 10.2272198 -7 10 C-9.9375 9 -9.9375 9 -12 8 C-11.67 6.68 -11.34 5.36 -11 4 C-10.01 4.33 -9.02 4.66 -8 5 C-6.43881572 5.06740865 -4.8749748 5.08514456 -3.3125 5.0625 C-2.50425781 5.05347656 -1.69601563 5.04445313 -0.86328125 5.03515625 C-0.24839844 5.02355469 0.36648437 5.01195312 1 5 C0.67 3.35 0.34 1.7 0 0 Z " fill="#1B7BC7" transform="translate(33,47)"/>
<path d="M0 0 C0.99 0 1.98 0 3 0 C3.33 1.32 3.66 2.64 4 4 C4.66 4 5.32 4 6 4 C6 4.66 6 5.32 6 6 C6.66 6.33 7.32 6.66 8 7 C3.88209492 9.74527005 0.73673968 9.06638869 -4.08984375 8.875 C-7.04126461 9.00177244 -8.56464762 9.37643175 -11 11 C-12.26804566 13.0335948 -12.26804566 13.0335948 -13 15 C-13.33 13.68 -13.66 12.36 -14 11 C-9.65757571 6.65757571 -5.86448454 6.2555331 0 6 C-0.33 5.01 -0.66 4.02 -1 3 C-2.58323688 2.972807 -4.16661062 2.95351694 -5.75 2.9375 C-6.63171875 2.92589844 -7.5134375 2.91429687 -8.421875 2.90234375 C-10.7818838 2.99173802 -12.74498524 3.33087179 -15 4 C-11.01974567 -0.81820261 -5.84357956 -0.10821444 0 0 Z " fill="#C5DEF9" transform="translate(33,27)"/>
<path d="M0 0 C1.32 0 2.64 0 4 0 C4 6.6 4 13.2 4 20 C2.68 20 1.36 20 0 20 C0 13.4 0 6.8 0 0 Z " fill="#3490FE" transform="translate(123,36)"/>
<path d="M0 0 C1.32 0 2.64 0 4 0 C4 6.6 4 13.2 4 20 C2.68 20 1.36 20 0 20 C0 13.4 0 6.8 0 0 Z " fill="#3490FE" transform="translate(68,36)"/>
<path d="M0 0 C0 5.61 0 11.22 0 17 C-1.65 16.67 -3.3 16.34 -5 16 C-5 11.05 -5 6.1 -5 1 C-3 0 -3 0 0 0 Z " fill="#4C9CFE" transform="translate(48,27)"/>
<path d="M0 0 C0.99 0 1.98 0 3 0 C4.32229189 2.64458379 4.09677194 4.67761301 4.0625 7.625 C4.05347656 8.62789062 4.04445313 9.63078125 4.03515625 10.6640625 C4.02355469 11.43492188 4.01195313 12.20578125 4 13 C2.35 13 0.7 13 -1 13 C-1.02686553 11.02090602 -1.04633375 9.04171029 -1.0625 7.0625 C-1.07410156 5.96035156 -1.08570312 4.85820313 -1.09765625 3.72265625 C-1 1 -1 1 0 0 Z " fill="#1579CF" transform="translate(79,43)"/>
<path d="M0 0 C1.65 0 3.3 0 5 0 C4.54803755 1.60597325 4.08817673 3.20972508 3.625 4.8125 C3.36976562 5.70582031 3.11453125 6.59914063 2.8515625 7.51953125 C2 10 2 10 0 13 C-1.32 13 -2.64 13 -4 13 C-3.52140759 11.39566191 -3.04210442 9.79153584 -2.5625 8.1875 C-2.29566406 7.29417969 -2.02882813 6.40085937 -1.75390625 5.48046875 C-1.19612127 3.64526945 -0.60655425 1.81966274 0 0 Z " fill="#4B9CFE" transform="translate(114,35)"/>
<path d="M0 0 C-2.5 2 -2.5 2 -5 4 C-6.2065625 5.11375 -6.2065625 5.11375 -7.4375 6.25 C-10.53027351 8.36213801 -12.33088799 8.34131275 -16 8 C-10.95142965 2.66293992 -7.58466629 -0.52916276 0 0 Z " fill="#2F8CF9" transform="translate(23,27)"/>
<path d="M0 0 C0.99 0 1.98 0 3 0 C2.5020163 3.73487777 2.12508244 5.81237635 0 9 C-3.125 9.1875 -3.125 9.1875 -6 9 C-6 7.68 -6 6.36 -6 5 C-4.68 5 -3.36 5 -2 5 C-1.855625 4.360625 -1.71125 3.72125 -1.5625 3.0625 C-1 1 -1 1 0 0 Z " fill="#0971C4" transform="translate(111,47)"/>
<path d="M0 0 C0.33 0.66 0.66 1.32 1 2 C-0.57201172 2.27263672 -0.57201172 2.27263672 -2.17578125 2.55078125 C-3.55480095 2.80407058 -4.93370119 3.05801096 -6.3125 3.3125 C-7.00279297 3.43044922 -7.69308594 3.54839844 -8.40429688 3.66992188 C-12.11112435 4.36830966 -14.70747672 4.86424977 -17 8 C-16.77347501 4.82865008 -15.9392256 3.94390056 -13.5625 1.75 C-8.90042893 -0.54014017 -5.09636993 -0.36258758 0 0 Z " fill="#56A2FF" transform="translate(32,29)"/>
<path d="M0 0 C2.3125 0.125 2.3125 0.125 5 1 C8 5.86206897 8 5.86206897 8 9 C6.35 9 4.7 9 3 9 C0 3.375 0 3.375 0 0 Z " fill="#1F80DA" transform="translate(56,47)"/>
<path d="M0 0 C1.65 0 3.3 0 5 0 C4.8125 3.3125 4.8125 3.3125 4 7 C1.4375 8.9375 1.4375 8.9375 -1 10 C-1 9.34 -1 8.68 -1 8 C-1.66 7.67 -2.32 7.34 -3 7 C-2.34 6.34 -1.68 5.68 -1 5 C-0.35232207 2.42938689 -0.35232207 2.42938689 0 0 Z " fill="#4C9CFD" transform="translate(57,35)"/>
<path d="M0 0 C1.67592198 0.30740417 3.34770937 0.64639004 5 1.0625 C5 1.3925 5 1.7225 5 2.0625 C4.10796875 2.30484375 3.2159375 2.5471875 2.296875 2.796875 C1.12640625 3.13203125 -0.0440625 3.4671875 -1.25 3.8125 C-2.99023438 4.29976562 -2.99023438 4.29976562 -4.765625 4.796875 C-8.08608643 6.09618599 -9.71737482 7.37307034 -12 10.0625 C-12.66 9.7325 -13.32 9.4025 -14 9.0625 C-7.31933766 -0.75749937 -7.31933766 -0.75749937 0 0 Z " fill="#66AAFF" transform="translate(24,20.9375)"/>
<path d="M0 0 C10.55808656 0.77904328 10.55808656 0.77904328 15 3 C14.360625 3.12375 13.72125 3.2475 13.0625 3.375 C12.381875 3.58125 11.70125 3.7875 11 4 C10.67 4.66 10.34 5.32 10 6 C5.05 4.02 5.05 4.02 0 2 C0 1.34 0 0.68 0 0 Z " fill="#2F8BEE" transform="translate(22,43)"/>
<path d="M0 0 C1.65 0 3.3 0 5 0 C4.30058404 3.14737182 3.23921302 6.02588876 2 9 C0.35 9 -1.3 9 -3 9 C-2.01 6.03 -1.02 3.06 0 0 Z " fill="#4D9DFE" transform="translate(169,35)"/>
<path d="M0 0 C1.32 0 2.64 0 4 0 C4.144375 1.11375 4.28875 2.2275 4.4375 3.375 C4.78372035 6.82142047 4.78372035 6.82142047 6 9 C4.02 9.33 2.04 9.66 0 10 C0 6.7 0 3.4 0 0 Z " fill="#1C7ED9" transform="translate(135,43)"/>
<path d="M0 0 C1.65 0 3.3 0 5 0 C8 5.75 8 5.75 8 8 C6.35 8 4.7 8 3 8 C0 2.25 0 2.25 0 0 Z " fill="#499BFE" transform="translate(151,35)"/>
<path d="M0 0 C1.65 0 3.3 0 5 0 C6.25664978 2.90600261 7 4.79604584 7 8 C5.35 8 3.7 8 2 8 C0.74335022 5.09399739 0 3.20395416 0 0 Z " fill="#4A9CFE" transform="translate(97,35)"/>
<path d="M0 0 C0.99 0 1.98 0 3 0 C3 2.97 3 5.94 3 9 C1.68 9 0.36 9 -1 9 C-1.09765625 2.84765625 -1.09765625 2.84765625 -1 1 C-0.67 0.67 -0.34 0.34 0 0 Z " fill="#0E75CF" transform="translate(124,47)"/>
<path d="M0 0 C0.99 0 1.98 0 3 0 C3 2.97 3 5.94 3 9 C1.68 9 0.36 9 -1 9 C-1.09765625 2.84765625 -1.09765625 2.84765625 -1 1 C-0.67 0.67 -0.34 0.34 0 0 Z " fill="#0E75CF" transform="translate(90,47)"/>
<path d="M0 0 C0.99 0 1.98 0 3 0 C3 2.97 3 5.94 3 9 C1.68 9 0.36 9 -1 9 C-1.09765625 2.84765625 -1.09765625 2.84765625 -1 1 C-0.67 0.67 -0.34 0.34 0 0 Z " fill="#0E75CF" transform="translate(69,47)"/>
<path d="M0 0 C0.99 0 1.98 0 3 0 C3 2.97 3 5.94 3 9 C1.68 9 0.36 9 -1 9 C-1.09765625 2.84765625 -1.09765625 2.84765625 -1 1 C-0.67 0.67 -0.34 0.34 0 0 Z " fill="#0E75CF" transform="translate(44,47)"/>
<path d="M0 0 C2.0625 0.4375 2.0625 0.4375 4 1 C3.67 2.65 3.34 4.3 3 6 C1.35 5.67 -0.3 5.34 -2 5 C-1.125 1.125 -1.125 1.125 0 0 Z " fill="#6AADFF" transform="translate(124,27)"/>
<path d="M0 0 C2.0625 0.4375 2.0625 0.4375 4 1 C3.67 2.65 3.34 4.3 3 6 C1.35 5.67 -0.3 5.34 -2 5 C-1.125 1.125 -1.125 1.125 0 0 Z " fill="#6AADFF" transform="translate(69,27)"/>
<path d="M0 0 C1.66611905 -0.042721 3.33382885 -0.04063832 5 0 C6 1 6 1 6.0625 3.5625 C6.041875 4.366875 6.02125 5.17125 6 6 C4.35 5.67 2.7 5.34 1 5 C0.67 3.35 0.34 1.7 0 0 Z " fill="#1F80DA" transform="translate(33,47)"/>
<path d="M0 0 C0.33 1.32 0.66 2.64 1 4 C0.01 4.495 0.01 4.495 -1 5 C-1 4.34 -1 3.68 -1 3 C-3.64 3 -6.28 3 -9 3 C-6.01800145 0.01800145 -4.21244839 0 0 0 Z " fill="#328EF8" transform="translate(34,24)"/>
<path d="M0 0 C0.33 0.99 0.66 1.98 1 3 C-1.97 3 -4.94 3 -8 3 C-8 2.34 -8 1.68 -8 1 C-5.07175348 0.02391783 -3.04386724 -0.08226668 0 0 Z " fill="#2987E9" transform="translate(33,31)"/>
<path d="M0 0 C0.99 0 1.98 0 3 0 C2.67 1.98 2.34 3.96 2 6 C0.68 5.67 -0.64 5.34 -2 5 C-1.125 1.125 -1.125 1.125 0 0 Z " fill="#1C7ED9" transform="translate(111,47)"/>
<path d="M0 0 C1.65 0 3.3 0 5 0 C4.67 1.65 4.34 3.3 4 5 C2.35 5 0.7 5 -1 5 C-0.67 3.35 -0.34 1.7 0 0 Z " fill="#338DEF" transform="translate(111,43)"/>
<path d="M0 0 C0.99 0 1.98 0 3 0 C3.33 1.98 3.66 3.96 4 6 C3.67 5.34 3.34 4.68 3 4 C1.68 4.33 0.36 4.66 -1 5 C-0.67 3.35 -0.34 1.7 0 0 Z " fill="#2887EC" transform="translate(79,43)"/>
<path d="M0 0 C1.65 0 3.3 0 5 0 C5.33 1.32 5.66 2.64 6 4 C4.35 4 2.7 4 1 4 C0.67 2.68 0.34 1.36 0 0 Z " fill="#308CF0" transform="translate(155,43)"/>
<path d="M0 0 C1.65 0 3.3 0 5 0 C5.33 1.32 5.66 2.64 6 4 C4.35 4 2.7 4 1 4 C0.67 2.68 0.34 1.36 0 0 Z " fill="#318CF0" transform="translate(100,43)"/>
<path d="M0 0 C-2.1875 2.0625 -2.1875 2.0625 -5 4 C-7.8125 3.75 -7.8125 3.75 -10 3 C-8.0130571 -0.97388579 -3.91761109 -0.08705802 0 0 Z " fill="#4197FF" transform="translate(23,27)"/>
<path d="M0 0 C2.475 0.495 2.475 0.495 5 1 C5.33 1.99 5.66 2.98 6 4 C4.35 4 2.7 4 1 4 C0.67 2.68 0.34 1.36 0 0 Z " fill="#0A72C3" transform="translate(58,52)"/>
<path d="M0 0 C2.475 0.99 2.475 0.99 5 2 C5 4.31 5 6.62 5 9 C0.57142857 3.85714286 0.57142857 3.85714286 0 0 Z " fill="#6EADEF" transform="translate(33,22)"/>
<path d="M0 0 C0.99 0 1.98 0 3 0 C3 1.32 3 2.64 3 4 C1.35 4 -0.3 4 -2 4 C-1.34 2.68 -0.68 1.36 0 0 Z " fill="#2C89EF" transform="translate(167,43)"/>
<path d="M0 0 C1.32 0 2.64 0 4 0 C4 1.32 4 2.64 4 4 C2.68 4.33 1.36 4.66 0 5 C0 3.35 0 1.7 0 0 Z " fill="#2284EE" transform="translate(135,43)"/>
<path d="M0 0 C1.32 0 2.64 0 4 0 C4 1.32 4 2.64 4 4 C2.68 4.33 1.36 4.66 0 5 C0 3.35 0 1.7 0 0 Z " fill="#2284EE" transform="translate(123,43)"/>
<path d="M0 0 C1.32 0 2.64 0 4 0 C4 1.32 4 2.64 4 4 C2.68 4.33 1.36 4.66 0 5 C0 3.35 0 1.7 0 0 Z " fill="#2284EE" transform="translate(89,43)"/>
<path d="M0 0 C1.32 0 2.64 0 4 0 C4 1.32 4 2.64 4 4 C2.68 4.33 1.36 4.66 0 5 C0 3.35 0 1.7 0 0 Z " fill="#2284EE" transform="translate(68,43)"/>
</svg>
